<svg xmlns="http://www.w3.org/2000/svg" width="1280" height="450" viewBox="0 0 1280 450"><rect width="100%" height="100%" fill="#0000FF"/><path fill="#FFFFFF" d="M497.345 225q0 17.89-5.96 32.85-5.96 14.97-16.76 25.76-10.8 10.8-25.99 16.77-15.18 5.96-33.75 5.96h-61.99V143.66h61.99q18.57 0 33.75 6.02 15.19 6.02 25.99 16.77 10.8 10.74 16.76 25.7t5.96 32.85m-31.04 0q0-13.39-3.55-24.02-3.54-10.63-10.24-18-6.69-7.36-16.2-11.3-9.5-3.94-21.43-3.94h-31.61v114.53h31.61q11.93 0 21.43-3.94 9.51-3.94 16.2-11.31 6.7-7.37 10.24-18 3.55-10.63 3.55-24.02m160.31-57.26h-72.23v45.11h56.93v23.29h-56.93v46.01h72.23v24.19h-102.6V143.66h102.6zM797.835 225q0 17.89-5.96 32.85-5.96 14.97-16.76 25.76-10.8 10.8-25.99 16.77-15.19 5.96-33.75 5.96h-61.99V143.66h61.99q18.56 0 33.75 6.02t25.99 16.77q10.8 10.74 16.76 25.7t5.96 32.85m-31.05 0q0-13.39-3.54-24.02-3.55-10.63-10.24-18-6.69-7.36-16.2-11.3-9.5-3.94-21.43-3.94h-31.61v114.53h31.61q11.93 0 21.43-3.94 9.51-3.94 16.2-11.31t10.24-18q3.54-10.63 3.54-24.02m160.32-57.26h-72.23v45.11h56.93v23.29h-56.93v46.01h72.23v24.19h-102.6V143.66h102.6z"/></svg>